<?xml version="1.0" encoding="UTF-8" standalone="no"?>
<!-- Created with Inkscape (http://www.inkscape.org/) -->

<svg
   width="160"
   height="160"
   viewBox="0 0 160 160"
   version="1.1"
   id="svg1"
   inkscape:version="1.4.4 (dcaf3e7, 2026-05-05)"
   sodipodi:docname="stepper v2.4.svg"
   inkscape:export-filename="icon-dark.svg"
   inkscape:export-xdpi="96"
   inkscape:export-ydpi="96"
   xmlns:inkscape="http://www.inkscape.org/namespaces/inkscape"
   xmlns:sodipodi="http://sodipodi.sourceforge.net/DTD/sodipodi-0.dtd"
   xmlns="http://www.w3.org/2000/svg"
   xmlns:svg="http://www.w3.org/2000/svg">
  <sodipodi:namedview
     id="namedview1"
     pagecolor="#ffffff"
     bordercolor="#000000"
     borderopacity="0.25"
     inkscape:showpageshadow="2"
     inkscape:pageopacity="0.0"
     inkscape:pagecheckerboard="true"
     inkscape:deskcolor="#d1d1d1"
     inkscape:document-units="px"
     showgrid="true"
     inkscape:zoom="3.3559951"
     inkscape:cx="90.882135"
     inkscape:cy="83.879741"
     inkscape:window-width="2512"
     inkscape:window-height="1417"
     inkscape:window-x="2600"
     inkscape:window-y="793"
     inkscape:window-maximized="1"
     inkscape:current-layer="layer1">
    <inkscape:grid
       type="axonomgrid"
       id="grid1"
       units="px"
       originx="103.20509"
       originy="54.999928"
       spacingx="3.7795276"
       spacingy="5"
       empcolor="#0099e5"
       empopacity="0.30196078"
       color="#0099e5"
       opacity="0.14901961"
       empspacing="5"
       dotted="false"
       gridanglex="30"
       gridanglez="30"
       enabled="true"
       visible="false" />
  </sodipodi:namedview>
  <defs
     id="defs1">
    <inkscape:path-effect
       effect="powermask"
       id="path-effect13"
       is_visible="true"
       lpeversion="1"
       uri="#mask-powermask-path-effect13"
       invert="false"
       hide_mask="false"
       background="true"
       background_color="#ffffffff" />
    <inkscape:path-effect
       effect="powermask"
       id="path-effect10"
       is_visible="true"
       lpeversion="1"
       uri="#mask-powermask-path-effect10"
       invert="false"
       hide_mask="false"
       background="true"
       background_color="#ffffffff" />
    <filter
       id="mask-powermask-path-effect5_inverse"
       inkscape:label="filtermask-powermask-path-effect5"
       style="color-interpolation-filters:sRGB"
       height="100"
       width="100"
       x="-50"
       y="-50">
      <feColorMatrix
         id="mask-powermask-path-effect5_primitive1"
         values="1"
         type="saturate"
         result="fbSourceGraphic" />
      <feColorMatrix
         id="mask-powermask-path-effect5_primitive2"
         values="-1 0 0 0 1 0 -1 0 0 1 0 0 -1 0 1 0 0 0 1 0 "
         in="fbSourceGraphic" />
    </filter>
  </defs>
  <g
     inkscape:groupmode="layer"
     id="layer2"
     inkscape:label="Bg"
     style="display:none">
    <rect
       style="fill:#171717;fill-opacity:1;stroke-width:10;stroke-linecap:round;stroke-linejoin:round;paint-order:markers fill stroke"
       id="rect1"
       width="160"
       height="160"
       x="0"
       y="0"
       inkscape:label="Dark" />
  </g>
  <g
     inkscape:label="Main"
     inkscape:groupmode="layer"
     id="layer1"
     transform="translate(-152.79491,-201.00008)"
     style="display:inline">
    <path
       style="display:none;opacity:1;fill:none;fill-opacity:1;stroke:#ffffff;stroke-width:10;stroke-linecap:round;stroke-linejoin:round;stroke-dasharray:none;stroke-opacity:1;paint-order:markers fill stroke"
       d="m 167.843,318.50008 v -25 l 21.65064,-12.5 v -25 l 21.65063,-12.5 v -25 l 21.65064,-12.5 64.95191,37.5 v 75 l -64.95191,37.5 z"
       id="path11"
       inkscape:label="outline (og)"
       mask="none" />
    <path
       id="path11-82"
       style="baseline-shift:baseline;display:inline;overflow:visible;opacity:1;vector-effect:none;fill:#bab4e7;fill-opacity:1;stroke-linecap:round;stroke-linejoin:round;paint-order:markers fill stroke;enable-background:accumulate;stop-color:#000000;stop-opacity:1"
       d="m 232.79491,201.00008 a 5.0005,5.0005 0 0 0 -2.5,0.66992 l -21.65039,12.5 a 5.0005,5.0005 0 0 0 -2.5,4.33008 v 22.11328 L 186.99413,251.67 a 5.0005,5.0005 0 0 0 -2.5,4.33008 v 22.11328 L 165.34374,289.17 a 5.0005,5.0005 0 0 0 -2.5,4.33008 v 25 a 5.0005,5.0005 0 0 0 2.5,4.33008 l 64.95117,37.5 a 5.0005,5.0005 0 0 0 5,0 l 64.95117,-37.5 a 5.0005,5.0005 0 0 0 2.5,-4.33008 v -75 a 5.0005,5.0005 0 0 0 -2.5,-4.33008 l -64.95117,-37.5 a 5.0005,5.0005 0 0 0 -2.5,-0.66992 z m 0,5 64.95117,37.5 v 75 l -64.95117,37.5 -64.95117,-37.5 v -25 l 21.65039,-12.5 v -25 l 21.65039,-12.5 v -25 z"
       inkscape:label="outline stroke light" />
    <path
       id="path11-8"
       style="baseline-shift:baseline;display:none;overflow:visible;opacity:1;vector-effect:none;fill:#efefef;fill-opacity:1;stroke-linecap:round;stroke-linejoin:round;paint-order:markers fill stroke;enable-background:accumulate;stop-color:#000000;stop-opacity:1"
       inkscape:label="outline stroke dark"
       d="m 232.79491,201.00008 a 5.0005,5.0005 0 0 0 -2.5,0.66992 l -21.65039,12.5 a 5.0005,5.0005 0 0 0 -2.5,4.33008 v 22.11328 L 186.99413,251.67 a 5.0005,5.0005 0 0 0 -2.5,4.33008 v 22.11328 L 165.34374,289.17 a 5.0005,5.0005 0 0 0 -2.5,4.33008 v 25 a 5.0005,5.0005 0 0 0 2.5,4.33008 l 64.95117,37.5 a 5.0005,5.0005 0 0 0 5,0 l 64.95117,-37.5 a 5.0005,5.0005 0 0 0 2.5,-4.33008 v -75 a 5.0005,5.0005 0 0 0 -2.5,-4.33008 l -64.95117,-37.5 a 5.0005,5.0005 0 0 0 -2.5,-0.66992 z m 0,5 64.95117,37.5 v 75 l -64.95117,37.5 -64.95117,-37.5 v -25 l 21.65039,-12.5 v -25 l 21.65039,-12.5 v -25 z" />
    <g
       id="g6"
       inkscape:label="m"
       transform="translate(20.09618,8.0000006e-5)"
       style="display:inline">
      <path
         style="fill:#6349da;fill-opacity:1;stroke-width:5;stroke-linecap:round;stroke-linejoin:round;paint-order:markers fill stroke"
         d="m 234.34936,318.5 -43.30127,-25 21.65064,-12.5 V 256 L 256,281 277.65064,268.5 v -25 L 212.69873,206 191.04809,218.5 v 25 L 169.39746,256 v 25 l -21.65064,12.5 v 25 l 64.95191,37.5 21.65063,-12.5 z"
         id="path2"
         inkscape:label="body" />
      <path
         id="path3"
         style="fill:#000000;fill-opacity:0.4;stroke-width:5;stroke-linecap:round;stroke-linejoin:round;paint-order:markers fill stroke"
         d="m 191.04883,218.5 v 25 L 256,281 V 256 Z M 169.39648,256 v 25 l 21.65235,12.5 v -25 z m -21.65039,37.5 v 25 l 64.95313,37.5 v -25 z"
         inkscape:label="shade" />
    </g>
  </g>
</svg>
